<svg width="40" height="40" viewBox="0 0 40 40" fill="none" xmlns="http://www.w3.org/2000/svg">
<g clip-path="url(#clip0_1384_4341)">
<g filter="url(#filter0_di_1384_4341)">
<path d="M30 40H10C6.68629 40 4 37.3137 4 34V6C4 2.68629 6.68629 0 10 0H20.5147C22.106 0 23.6321 0.632142 24.7574 1.75736L34.2426 11.2426C35.3679 12.3679 36 13.894 36 15.4853V34C36 37.3137 33.3137 40 30 40Z" fill="white"/>
<path d="M30 39.25H10C7.10051 39.25 4.75 36.8995 4.75 34V6C4.75 3.10051 7.10051 0.75 10 0.75H20.5147C21.9071 0.75 23.2425 1.30312 24.227 2.28769L33.7123 11.773C34.6969 12.7575 35.25 14.0929 35.25 15.4853V34C35.25 36.8995 32.8995 39.25 30 39.25Z" stroke="#CDD0D5" stroke-width="1.5"/>
</g>
<path d="M23 1V9C23 11.2091 24.7909 13 27 13H35" stroke="#CDD0D5" stroke-width="1.5"/>
<g filter="url(#filter1_i_1384_4341)">
<mask id="path-4-inside-1_1384_4341" fill="white">
<path d="M0 22C0 19.7909 1.79086 18 4 18H21C23.2091 18 25 19.7909 25 22V30C25 32.2091 23.2091 34 21 34H4C1.79086 34 0 32.2091 0 30V22Z"/>
</mask>
<path d="M0 22C0 19.7909 1.79086 18 4 18H21C23.2091 18 25 19.7909 25 22V30C25 32.2091 23.2091 34 21 34H4C1.79086 34 0 32.2091 0 30V22Z" fill="#B692F6"/>
<path d="M-1 22C-1 19.2386 1.23858 17 4 17H21C23.7614 17 26 19.2386 26 22H24C24 20.3431 22.6569 19 21 19H4C2.34315 19 1 20.3431 1 22H-1ZM25 34H0H25ZM4 34C1.23858 34 -1 31.7614 -1 29V22C-1 19.2386 1.23858 17 4 17V19C2.34315 19 1 20.3431 1 22V30C1 32.2091 2.34315 34 4 34ZM21 17C23.7614 17 26 19.2386 26 22V29C26 31.7614 23.7614 34 21 34C22.6569 34 24 32.2091 24 30V22C24 20.3431 22.6569 19 21 19V17Z" fill="black" fill-opacity="0.08" mask="url(#path-4-inside-1_1384_4341)"/>
<path d="M4.81641 30H3.26953L6.08594 22H7.875L10.6953 30H9.14844L7.01172 23.6406H6.94922L4.81641 30ZM4.86719 26.8633H9.08594V28.0273H4.86719V26.8633ZM12.1262 22L14.2083 28.2969H14.2903L16.3684 22H17.9622L15.1419 30H13.3528L10.5364 22H12.1262ZM20.6851 22V30H19.2359V22H20.6851Z" fill="white"/>
</g>
</g>
<defs>
<filter id="filter0_di_1384_4341" x="2" y="-4" width="36" height="47" filterUnits="userSpaceOnUse" color-interpolation-filters="sRGB">
<feFlood flood-opacity="0" result="BackgroundImageFix"/>
<feColorMatrix in="SourceAlpha" type="matrix" values="0 0 0 0 0 0 0 0 0 0 0 0 0 0 0 0 0 0 127 0" result="hardAlpha"/>
<feOffset dy="1"/>
<feGaussianBlur stdDeviation="1"/>
<feComposite in2="hardAlpha" operator="out"/>
<feColorMatrix type="matrix" values="0 0 0 0 0.894118 0 0 0 0 0.898039 0 0 0 0 0.905882 0 0 0 0.24 0"/>
<feBlend mode="normal" in2="BackgroundImageFix" result="effect1_dropShadow_1384_4341"/>
<feBlend mode="normal" in="SourceGraphic" in2="effect1_dropShadow_1384_4341" result="shape"/>
<feColorMatrix in="SourceAlpha" type="matrix" values="0 0 0 0 0 0 0 0 0 0 0 0 0 0 0 0 0 0 127 0" result="hardAlpha"/>
<feOffset dy="-4"/>
<feGaussianBlur stdDeviation="2"/>
<feComposite in2="hardAlpha" operator="arithmetic" k2="-1" k3="1"/>
<feColorMatrix type="matrix" values="0 0 0 0 0.813571 0 0 0 0 0.82 0 0 0 0 0.826429 0 0 0 0.32 0"/>
<feBlend mode="normal" in2="shape" result="effect2_innerShadow_1384_4341"/>
</filter>
<filter id="filter1_i_1384_4341" x="0" y="18" width="25" height="20" filterUnits="userSpaceOnUse" color-interpolation-filters="sRGB">
<feFlood flood-opacity="0" result="BackgroundImageFix"/>
<feBlend mode="normal" in="SourceGraphic" in2="BackgroundImageFix" result="shape"/>
<feColorMatrix in="SourceAlpha" type="matrix" values="0 0 0 0 0 0 0 0 0 0 0 0 0 0 0 0 0 0 127 0" result="hardAlpha"/>
<feOffset dy="4"/>
<feGaussianBlur stdDeviation="2"/>
<feComposite in2="hardAlpha" operator="arithmetic" k2="-1" k3="1"/>
<feColorMatrix type="matrix" values="0 0 0 0 1 0 0 0 0 1 0 0 0 0 1 0 0 0 0.08 0"/>
<feBlend mode="normal" in2="shape" result="effect1_innerShadow_1384_4341"/>
</filter>
<clipPath id="clip0_1384_4341">
<rect width="40" height="40" fill="white"/>
</clipPath>
</defs>
</svg>
