<svg width="214" height="66" viewBox="0 0 214 66" fill="none" xmlns="http://www.w3.org/2000/svg">
<g clip-path="url(#clip0_1318_12238)">
<path d="M56.6095 6.10611C53.0583 6.10611 50.4783 8.50329 50.4783 12.1935C50.4783 15.8038 53.0293 18.1211 56.6095 18.1211H56.7762V19.9953H59.7549V18.1211H59.9287C63.4944 18.1211 66.0455 15.7748 66.0455 12.2008C66.0455 8.50329 63.4944 6.10611 59.9287 6.10611H59.7549V4.24646H56.7762V6.10611H56.6095ZM56.6095 8.73575H56.7762V15.4915H56.6095C54.7325 15.4915 53.3845 14.4019 53.3845 12.1935C53.3845 9.87623 54.6962 8.73575 56.6095 8.73575ZM59.7549 8.73575H59.9505C61.8421 8.73575 63.1176 9.89803 63.1176 12.2008C63.1176 14.3655 61.8421 15.4915 59.9505 15.4915H59.7549V8.73575ZM69.3851 4.50797V19.3851H72.0955L78.5529 10.0215H78.6615V19.3851H81.7996V4.50797H79.0457L72.639 13.8643H72.5086V4.50797H69.3851ZM85.4055 19.3851H88.5436V13.2395H94.9139V19.3851H98.0448V4.50797H94.9139V10.6463H88.5436V4.50797H85.4055V19.3851ZM104.211 19.3851L105.312 15.9927H110.668L111.77 19.3851H115.132L110.016 4.50797H105.972L100.848 19.3851H104.211ZM106.11 13.5374L107.936 7.90763H108.051L109.878 13.5374H106.11ZM117.939 19.3851H121.077V13.2395H127.447V19.3851H130.578V4.50797H127.447V10.6463H121.077V4.50797H117.939V19.3851ZM147.282 9.71642C146.869 6.28044 144.274 4.30457 140.84 4.30457C136.919 4.30457 133.926 7.07951 133.926 11.9466C133.926 16.7991 136.868 19.5885 140.84 19.5885C144.644 19.5885 146.941 17.0533 147.282 14.3147L144.108 14.3001C143.811 15.891 142.564 16.8063 140.89 16.8063C138.636 16.8063 137.107 15.1283 137.107 11.9466C137.107 8.85197 138.615 7.08677 140.912 7.08677C142.629 7.08677 143.869 8.08197 144.108 9.71642H147.282ZM153.741 10.007V4.50797H150.61V19.3851H156.155C159.677 19.3851 161.873 17.4455 161.866 14.6343C161.873 11.8157 159.677 10.007 156.155 10.007H153.741ZM166.207 4.50797H163.069V19.3851H166.207V4.50797ZM153.741 12.4914H156.155C157.844 12.4914 158.764 13.4211 158.757 14.6052C158.764 15.8257 157.844 16.8572 156.155 16.8572H153.741V12.4914ZM175.241 16.77H182.365V19.3851H185.365V16.77H187.207V14.2493H185.365V4.50797H181.438L175.241 14.2929V16.77ZM182.424 14.2493H178.402V14.1331L182.308 7.93668H182.424V14.2493ZM195.855 19.5885C199.203 19.5885 201.609 17.7943 201.617 15.3825C201.609 13.5229 200.182 12.0047 198.399 11.7068V11.6051C199.949 11.2855 201.058 9.94161 201.065 8.30716C201.058 6.0044 198.855 4.30457 195.855 4.30457C192.847 4.30457 190.644 6.0044 190.651 8.30716C190.644 9.93435 191.739 11.2855 193.318 11.6051V11.7068C191.506 12.0047 190.094 13.5229 190.101 15.3825C190.094 17.7943 192.507 19.5885 195.855 19.5885ZM195.855 17.2785C194.362 17.2785 193.361 16.3922 193.361 15.1355C193.361 13.8497 194.413 12.92 195.855 12.92C197.29 12.92 198.348 13.8497 198.348 15.1355C198.348 16.3996 197.341 17.2785 195.855 17.2785ZM195.855 10.6317C194.601 10.6317 193.71 9.81086 193.71 8.63405C193.71 7.47177 194.587 6.67271 195.855 6.67271C197.116 6.67271 198 7.47904 198 8.63405C198 9.81086 197.102 10.6317 195.855 10.6317Z" fill="#464646"/>
<path d="M94.3326 28.7767H87.6212V37.7932H88.7105V29.7453H93.2434V37.7932H94.3326V28.7767ZM96.3893 40.3291H97.4259V36.7542H97.5138C97.7421 37.124 98.1814 37.934 99.4815 37.934C101.168 37.934 102.345 36.578 102.345 34.4296C102.345 32.2988 101.168 30.9428 99.4639 30.9428C98.1462 30.9428 97.7421 31.7529 97.5138 32.1051H97.3908V31.0308H96.3893V40.3291ZM97.4083 34.412C97.4083 32.8975 98.0759 31.8762 99.3409 31.8762C100.659 31.8762 101.309 32.9856 101.309 34.412C101.309 35.8561 100.641 37.0008 99.3409 37.0008C98.0936 37.0008 97.4083 35.9441 97.4083 34.412ZM106.668 37.934C108.494 37.934 109.724 36.5428 109.724 34.4472C109.724 32.334 108.494 30.9428 106.668 30.9428C104.84 30.9428 103.61 32.334 103.61 34.4472C103.61 36.5428 104.84 37.934 106.668 37.934ZM106.668 37.0008C105.279 37.0008 104.647 35.8032 104.647 34.4472C104.647 33.0912 105.279 31.8762 106.668 31.8762C108.056 31.8762 108.688 33.0912 108.688 34.4472C108.688 35.8032 108.056 37.0008 106.668 37.0008ZM114.048 37.934C115.541 37.934 116.524 37.0183 116.701 35.8208H115.664C115.471 36.5605 114.856 37.0008 114.048 37.0008C112.818 37.0008 112.027 35.9794 112.027 34.412C112.027 32.8799 112.835 31.8762 114.048 31.8762C114.961 31.8762 115.506 32.4396 115.664 33.056H116.701C116.524 31.788 115.453 30.9428 114.03 30.9428C112.203 30.9428 110.99 32.3868 110.99 34.4472C110.99 36.4724 112.15 37.934 114.048 37.934ZM117.684 31.9995H119.915V37.7932H120.952V31.9995H123.166V31.0308H117.684V31.9995ZM127.068 37.934C128.896 37.934 130.126 36.5428 130.126 34.4472C130.126 32.334 128.896 30.9428 127.068 30.9428C125.242 30.9428 124.012 32.334 124.012 34.4472C124.012 36.5428 125.242 37.934 127.068 37.934ZM127.068 37.0008C125.68 37.0008 125.048 35.8032 125.048 34.4472C125.048 33.0912 125.68 31.8762 127.068 31.8762C128.456 31.8762 129.089 33.0912 129.089 34.4472C129.089 35.8032 128.456 37.0008 127.068 37.0008ZM137.928 37.934C139.754 37.934 140.984 36.5428 140.984 34.4472C140.984 32.334 139.754 30.9428 137.928 30.9428C136.1 30.9428 134.87 32.334 134.87 34.4472C134.87 36.5428 136.1 37.934 137.928 37.934ZM137.928 37.0008C136.539 37.0008 135.906 35.8032 135.906 34.4472C135.906 33.0912 136.539 31.8762 137.928 31.8762C139.316 31.8762 139.947 33.0912 139.947 34.4472C139.947 35.8032 139.316 37.0008 137.928 37.0008ZM148.786 40.1001H149.822V37.934C151.65 37.934 152.88 36.5428 152.88 34.4472C152.88 32.334 151.65 30.9428 149.822 30.9428V28.7767H148.786V30.9428C146.959 30.9428 145.729 32.334 145.729 34.4472C145.729 36.5428 146.959 37.934 148.786 37.934V40.1001ZM149.822 37.0008V31.8762C151.21 31.8762 151.843 33.0912 151.843 34.4472C151.843 35.8032 151.21 37.0008 149.822 37.0008ZM148.786 37.0008C147.398 37.0008 146.766 35.8032 146.766 34.4472C146.766 33.0912 147.398 31.8762 148.786 31.8762V37.0008ZM155.501 36.261V31.0308H154.464V37.7932H155.676L158.909 32.5629V37.7932H159.946V31.0308H158.751L155.501 36.261ZM162.881 31.0308H161.845V37.7932H162.881V34.905H166.114V37.7932H167.15V31.0308H166.114V33.9366H162.881V31.0308ZM171.029 37.9517C172.206 37.9517 172.821 37.3177 173.032 36.8775H173.084V37.7932H174.121V33.3378C174.121 31.1894 172.487 30.9428 171.626 30.9428C170.607 30.9428 169.448 31.295 168.921 32.5277L169.904 32.8799C170.133 32.3868 170.673 31.8585 171.661 31.8585C172.615 31.8585 173.084 32.3648 173.084 33.2322V33.2673C173.084 33.7692 172.574 33.7252 171.344 33.8838C170.093 34.0466 168.728 34.3239 168.728 35.8737C168.728 37.1944 169.746 37.9517 171.029 37.9517ZM171.187 37.0183C170.361 37.0183 169.764 36.6485 169.764 35.9265C169.764 35.134 170.484 34.8875 171.292 34.7818C171.731 34.729 172.909 34.6057 173.084 34.3944V35.3453C173.084 36.1907 172.417 37.0183 171.187 37.0183ZM177.05 31.0308H176.013V37.7932H177.05V34.905H180.283V37.7932H181.319V31.0308H180.283V33.9366H177.05V31.0308ZM185.953 37.934C187.446 37.934 188.429 37.0183 188.606 35.8208H187.569C187.376 36.5605 186.761 37.0008 185.953 37.0008C184.723 37.0008 183.932 35.9794 183.932 34.412C183.932 32.8799 184.74 31.8762 185.953 31.8762C186.866 31.8762 187.411 32.4396 187.569 33.056H188.606C188.429 31.788 187.358 30.9428 185.935 30.9428C184.108 30.9428 182.895 32.3868 182.895 34.4472C182.895 36.4724 184.055 37.934 185.953 37.934ZM192.106 37.9517C193.283 37.9517 193.898 37.3177 194.109 36.8775H194.162V37.7932H195.199V33.3378C195.199 31.1894 193.564 30.9428 192.704 30.9428C191.685 30.9428 190.525 31.295 189.998 32.5277L190.981 32.8799C191.21 32.3868 191.75 31.8585 192.739 31.8585C193.692 31.8585 194.162 32.3648 194.162 33.2322V33.2673C194.162 33.7692 193.652 33.7252 192.423 33.8838C191.17 34.0466 189.805 34.3239 189.805 35.8737C189.805 37.1944 190.823 37.9517 192.106 37.9517ZM192.264 37.0183C191.438 37.0183 190.841 36.6485 190.841 35.9265C190.841 35.134 191.561 34.8875 192.37 34.7818C192.809 34.729 193.986 34.6057 194.162 34.3944V35.3453C194.162 36.1907 193.494 37.0183 192.264 37.0183ZM197.863 31.0308H196.669L198.812 34.412L196.669 37.7932H197.863L199.48 35.1693L201.096 37.7932H202.291L200.113 34.412L202.291 31.0308H201.096L199.48 33.7956L197.863 31.0308Z" fill="#ACACAC"/>
<path d="M31.3898 3.02454C26.2277 3.02454 21.1453 4.30059 16.5928 6.73967C12.0402 9.17874 8.15803 12.7055 5.29013 17.0077C2.42223 21.3099 0.657116 26.2546 0.151143 31.4037C-0.354829 36.553 0.413955 41.7478 2.3894 46.5282C4.36484 51.3084 7.48597 55.5266 11.4763 58.8091C15.4666 62.0915 20.2031 64.3369 25.2659 65.3462C30.3288 66.3557 35.562 66.098 40.5017 64.5961C45.4416 63.094 49.9356 60.3942 53.5858 56.7355L48.0368 51.1736C45.2992 53.9176 41.9287 55.9425 38.2238 57.069C34.519 58.1955 30.5941 58.3887 26.7969 57.6316C22.9997 56.8746 19.4474 55.1906 16.4547 52.7288C13.4619 50.2668 11.1211 47.1032 9.6395 43.518C8.15792 39.9328 7.58133 36.0367 7.9608 32.1748C8.34029 28.3128 9.66413 24.6043 11.815 21.3777C13.966 18.151 16.8776 15.5059 20.292 13.6767C23.7064 11.8474 27.5183 10.8903 31.3898 10.8903V3.02454Z" fill="#9FE48F"/>
<path d="M65.6169 33.946L47.9902 51.2009L53.4742 56.8294L71.101 39.5744L65.6169 33.946Z" fill="#9FE48F"/>
<path fill-rule="evenodd" clip-rule="evenodd" d="M31.0153 52.9643C41.1961 52.9643 49.4492 44.692 49.4492 34.4874C49.4492 24.283 41.1961 16.0106 31.0153 16.0106C20.8347 16.0106 12.5816 24.283 12.5816 34.4874C12.5816 44.692 20.8347 52.9643 31.0153 52.9643ZM38.1583 30.8719C38.1583 33.6692 36.2529 35.7852 32.6002 35.7852H29.1532V37.1482H32.7188V39.2324H29.1532V42.1407H26.718V39.2324H24.2435V37.1482H26.718V35.7852H24.2435V33.7089H26.718V25.911H32.6002C36.2845 25.911 38.1583 28.1142 38.1583 30.8719ZM29.1532 28.0032V33.7089H32.5686C34.7269 33.7089 35.7311 32.5439 35.7311 30.8798C35.7311 29.2315 34.7191 28.0032 32.6002 28.0032H29.1532Z" fill="#9FE48F"/>
<path d="M76.9543 27.9711L73.3179 42.0314L62.9878 31.8446L76.9543 27.9711Z" fill="#9FE48F"/>
</g>
<defs>
<clipPath id="clip0_1318_12238">
<rect width="214" height="66" fill="white"/>
</clipPath>
</defs>
</svg>
