<svg width="40" height="40" viewBox="0 0 40 40" fill="none" xmlns="http://www.w3.org/2000/svg">
<g clip-path="url(#clip0_1384_4293)">
<g filter="url(#filter0_di_1384_4293)">
<path d="M30 40H10C6.68629 40 4 37.3137 4 34V6C4 2.68629 6.68629 0 10 0H20.5147C22.106 0 23.6321 0.632142 24.7574 1.75736L34.2426 11.2426C35.3679 12.3679 36 13.894 36 15.4853V34C36 37.3137 33.3137 40 30 40Z" fill="white"/>
<path d="M30 39.25H10C7.10051 39.25 4.75 36.8995 4.75 34V6C4.75 3.10051 7.10051 0.75 10 0.75H20.5147C21.9071 0.75 23.2425 1.30312 24.227 2.28769L33.7123 11.773C34.6969 12.7575 35.25 14.0929 35.25 15.4853V34C35.25 36.8995 32.8995 39.25 30 39.25Z" stroke="#CDD0D5" stroke-width="1.5"/>
</g>
<path d="M23 1V9C23 11.2091 24.7909 13 27 13H35" stroke="#CDD0D5" stroke-width="1.5"/>
<g filter="url(#filter1_i_1384_4293)">
<mask id="path-4-inside-1_1384_4293" fill="white">
<path d="M0 22C0 19.7909 1.79086 18 4 18H28C30.2091 18 32 19.7909 32 22V30C32 32.2091 30.2091 34 28 34H4C1.79086 34 0 32.2091 0 30V22Z"/>
</mask>
<path d="M0 22C0 19.7909 1.79086 18 4 18H28C30.2091 18 32 19.7909 32 22V30C32 32.2091 30.2091 34 28 34H4C1.79086 34 0 32.2091 0 30V22Z" fill="#4876F9"/>
<path d="M-1 22C-1 19.2386 1.23858 17 4 17H28C30.7614 17 33 19.2386 33 22H31C31 20.3431 29.6569 19 28 19H4C2.34315 19 1 20.3431 1 22H-1ZM32 34H0H32ZM4 34C1.23858 34 -1 31.7614 -1 29V22C-1 19.2386 1.23858 17 4 17V19C2.34315 19 1 20.3431 1 22V30C1 32.2091 2.34315 34 4 34ZM28 17C30.7614 17 33 19.2386 33 22V29C33 31.7614 30.7614 34 28 34C29.6569 34 31 32.2091 31 30V22C31 20.3431 29.6569 19 28 19V17Z" fill="black" fill-opacity="0.08" mask="url(#path-4-inside-1_1384_4293)"/>
<path d="M6.5 30H3.78906V22H6.55469C7.34896 22 8.03125 22.1602 8.60156 22.4805C9.17448 22.7982 9.61458 23.2552 9.92188 23.8516C10.2292 24.4479 10.3828 25.1615 10.3828 25.9922C10.3828 26.8255 10.2279 27.5417 9.91797 28.1406C9.61068 28.7396 9.16667 29.1992 8.58594 29.5195C8.00781 29.8398 7.3125 30 6.5 30ZM5.23828 28.7461H6.42969C6.98698 28.7461 7.45182 28.6445 7.82422 28.4414C8.19661 28.2357 8.47656 27.9297 8.66406 27.5234C8.85156 27.1146 8.94531 26.6042 8.94531 25.9922C8.94531 25.3802 8.85156 24.8724 8.66406 24.4687C8.47656 24.0625 8.19922 23.7591 7.83203 23.5586C7.46745 23.3555 7.01432 23.2539 6.47266 23.2539H5.23828V28.7461ZM19.1282 26C19.1282 26.862 18.9667 27.6003 18.6438 28.2148C18.3235 28.8268 17.886 29.2956 17.3313 29.6211C16.7792 29.9466 16.1529 30.1094 15.4524 30.1094C14.7519 30.1094 14.1243 29.9466 13.5696 29.6211C13.0175 29.293 12.58 28.8229 12.2571 28.2109C11.9368 27.5964 11.7766 26.8594 11.7766 26C11.7766 25.138 11.9368 24.401 12.2571 23.7891C12.58 23.1745 13.0175 22.7044 13.5696 22.3789C14.1243 22.0534 14.7519 21.8906 15.4524 21.8906C16.1529 21.8906 16.7792 22.0534 17.3313 22.3789C17.886 22.7044 18.3235 23.1745 18.6438 23.7891C18.9667 24.401 19.1282 25.138 19.1282 26ZM17.6712 26C17.6712 25.3932 17.5761 24.8815 17.386 24.4648C17.1985 24.0456 16.9381 23.7292 16.6048 23.5156C16.2714 23.2995 15.8873 23.1914 15.4524 23.1914C15.0175 23.1914 14.6334 23.2995 14.3001 23.5156C13.9667 23.7292 13.705 24.0456 13.5149 24.4648C13.3274 24.8815 13.2337 25.3932 13.2337 26C13.2337 26.6068 13.3274 27.1198 13.5149 27.5391C13.705 27.9557 13.9667 28.2721 14.3001 28.4883C14.6334 28.7018 15.0175 28.8086 15.4524 28.8086C15.8873 28.8086 16.2714 28.7018 16.6048 28.4883C16.9381 28.2721 17.1985 27.9557 17.386 27.5391C17.5761 27.1198 17.6712 26.6068 17.6712 26ZM27.566 24.6992H26.105C26.0634 24.4596 25.9866 24.2474 25.8746 24.0625C25.7626 23.875 25.6233 23.7161 25.4566 23.5859C25.2899 23.4557 25.0998 23.3581 24.8863 23.293C24.6754 23.2253 24.4475 23.1914 24.2027 23.1914C23.7678 23.1914 23.3824 23.3008 23.0464 23.5195C22.7105 23.7357 22.4475 24.0534 22.2574 24.4727C22.0673 24.8893 21.9722 25.3984 21.9722 26C21.9722 26.612 22.0673 27.1276 22.2574 27.5469C22.4501 27.9635 22.7131 28.2786 23.0464 28.4922C23.3824 28.7031 23.7665 28.8086 24.1988 28.8086C24.4384 28.8086 24.6623 28.7773 24.8707 28.7148C25.0816 28.6497 25.2704 28.5547 25.4371 28.4297C25.6063 28.3047 25.7483 28.151 25.8629 27.9687C25.98 27.7865 26.0608 27.5781 26.105 27.3437L27.566 27.3516C27.5113 27.7318 27.3928 28.0885 27.2105 28.4219C27.0308 28.7552 26.7951 29.0495 26.5035 29.3047C26.2118 29.5573 25.8707 29.7552 25.48 29.8984C25.0894 30.0391 24.6558 30.1094 24.1793 30.1094C23.4761 30.1094 22.8485 29.9466 22.2964 29.6211C21.7444 29.2956 21.3095 28.8255 20.9918 28.2109C20.6741 27.5964 20.5152 26.8594 20.5152 26C20.5152 25.138 20.6754 24.401 20.9957 23.7891C21.316 23.1745 21.7522 22.7044 22.3043 22.3789C22.8563 22.0534 23.4813 21.8906 24.1793 21.8906C24.6246 21.8906 25.0386 21.9531 25.4214 22.0781C25.8043 22.2031 26.1454 22.3867 26.4449 22.6289C26.7444 22.8685 26.9905 23.1628 27.1832 23.5117C27.3785 23.8581 27.5061 24.2539 27.566 24.6992Z" fill="white"/>
</g>
</g>
<defs>
<filter id="filter0_di_1384_4293" x="2" y="-4" width="36" height="47" filterUnits="userSpaceOnUse" color-interpolation-filters="sRGB">
<feFlood flood-opacity="0" result="BackgroundImageFix"/>
<feColorMatrix in="SourceAlpha" type="matrix" values="0 0 0 0 0 0 0 0 0 0 0 0 0 0 0 0 0 0 127 0" result="hardAlpha"/>
<feOffset dy="1"/>
<feGaussianBlur stdDeviation="1"/>
<feComposite in2="hardAlpha" operator="out"/>
<feColorMatrix type="matrix" values="0 0 0 0 0.894118 0 0 0 0 0.898039 0 0 0 0 0.905882 0 0 0 0.24 0"/>
<feBlend mode="normal" in2="BackgroundImageFix" result="effect1_dropShadow_1384_4293"/>
<feBlend mode="normal" in="SourceGraphic" in2="effect1_dropShadow_1384_4293" result="shape"/>
<feColorMatrix in="SourceAlpha" type="matrix" values="0 0 0 0 0 0 0 0 0 0 0 0 0 0 0 0 0 0 127 0" result="hardAlpha"/>
<feOffset dy="-4"/>
<feGaussianBlur stdDeviation="2"/>
<feComposite in2="hardAlpha" operator="arithmetic" k2="-1" k3="1"/>
<feColorMatrix type="matrix" values="0 0 0 0 0.813571 0 0 0 0 0.82 0 0 0 0 0.826429 0 0 0 0.32 0"/>
<feBlend mode="normal" in2="shape" result="effect2_innerShadow_1384_4293"/>
</filter>
<filter id="filter1_i_1384_4293" x="0" y="18" width="32" height="20" filterUnits="userSpaceOnUse" color-interpolation-filters="sRGB">
<feFlood flood-opacity="0" result="BackgroundImageFix"/>
<feBlend mode="normal" in="SourceGraphic" in2="BackgroundImageFix" result="shape"/>
<feColorMatrix in="SourceAlpha" type="matrix" values="0 0 0 0 0 0 0 0 0 0 0 0 0 0 0 0 0 0 127 0" result="hardAlpha"/>
<feOffset dy="4"/>
<feGaussianBlur stdDeviation="2"/>
<feComposite in2="hardAlpha" operator="arithmetic" k2="-1" k3="1"/>
<feColorMatrix type="matrix" values="0 0 0 0 1 0 0 0 0 1 0 0 0 0 1 0 0 0 0.08 0"/>
<feBlend mode="normal" in2="shape" result="effect1_innerShadow_1384_4293"/>
</filter>
<clipPath id="clip0_1384_4293">
<rect width="40" height="40" fill="white"/>
</clipPath>
</defs>
</svg>
