<svg width="24" height="24" viewBox="0 0 24 24" fill="none" xmlns="http://www.w3.org/2000/svg">
<path d="M19.6621 11.8407C19.6651 13.0139 19.391 14.1713 18.8621 15.2185C18.2349 16.4734 17.2708 17.5289 16.0776 18.2667C14.8844 19.0046 13.5094 19.3957 12.1065 19.3963C10.9333 19.3993 9.77598 19.1252 8.72877 18.5963L3.66211 20.2852L5.351 15.2185C4.82205 14.1713 4.54794 13.0139 4.551 11.8407C4.55154 10.4378 4.94265 9.06282 5.68052 7.86966C6.41839 6.67651 7.47389 5.71235 8.72877 5.08518C9.77598 4.55623 10.9333 4.28212 12.1065 4.28518H12.551C14.4037 4.3874 16.1537 5.16941 17.4658 6.4815C18.7779 7.79358 19.5599 9.54353 19.6621 11.3963V11.8407Z" stroke="#98A2B3" stroke-width="1.4" stroke-linecap="round" stroke-linejoin="round"/>
<rect x="15" y="3" width="6" height="6" rx="3" fill="#B42318"/>
</svg>
