<svg width="16" height="16" viewBox="0 0 16 16" fill="none" xmlns="http://www.w3.org/2000/svg">
<path d="M6.23105 6.50791L4.64299 6.35249C4.23004 6.31208 3.98091 6.79814 4.25483 7.10979C4.27112 7.12831 4.28887 7.14549 4.30792 7.16115L9.20116 11.184C9.56304 11.4815 10.0875 11.1156 9.93317 10.6733L9.41468 9.18673C9.3098 8.88603 9.37063 8.55235 9.57488 8.308L10.9842 6.62202C11.1763 6.39216 11.4614 6.26055 11.7609 6.26341L12.593 6.27133C13.0799 6.27596 13.4476 5.83117 13.3515 5.35378C13.3167 5.1808 13.2232 5.02513 13.0869 4.91307L12.7508 4.63673L9.86936 2.26784C9.72868 2.15218 9.55239 2.08862 9.37027 2.08788C8.88061 2.0859 8.50682 2.52481 8.58675 3.00791L8.71462 3.78081C8.764 4.07928 8.67561 4.38405 8.4742 4.60979L7.07462 6.17842C6.86213 6.41658 6.54871 6.53899 6.23105 6.50791Z" stroke="#101828"/>
<path d="M4.33582 11.3381L5.90757 9.42625C6.11253 9.17694 6.45981 9.09717 6.75302 9.23203C6.86418 9.28316 6.96024 9.36214 7.03191 9.46131C7.22093 9.7229 7.20982 10.0791 7.00487 10.3284L5.43312 12.2402C5.18401 12.5432 4.73642 12.5869 4.43341 12.3378C4.1304 12.0887 4.08671 11.6411 4.33582 11.3381Z" stroke="#101828"/>
</svg>
