<svg width="20" height="20" viewBox="0 0 20 20" fill="none" xmlns="http://www.w3.org/2000/svg">
<path d="M2.49252 17.5C2.03606 17.5 1.66602 17.1292 1.66602 16.6722V3.32783C1.66602 2.87063 2.04544 2.5 2.49252 2.5H17.5062C17.9627 2.5 18.3327 2.87079 18.3327 3.32783V16.6722C18.3327 17.1293 17.9533 17.5 17.5062 17.5H2.49252ZM16.666 12.5V4.16667H3.33268V15.8333L11.666 7.5L16.666 12.5ZM16.666 14.857L11.666 9.857L5.68971 15.8333H16.666V14.857ZM6.66602 9.16667C5.74554 9.16667 4.99935 8.4205 4.99935 7.5C4.99935 6.57952 5.74554 5.83333 6.66602 5.83333C7.58649 5.83333 8.33268 6.57952 8.33268 7.5C8.33268 8.4205 7.58649 9.16667 6.66602 9.16667Z" fill="#667085"/>
</svg>
