<svg width="16" height="16" viewBox="0 0 16 16" fill="none" xmlns="http://www.w3.org/2000/svg">
<g id="users-02">
<path id="Icon" d="M10.6654 2.31184C11.6532 2.80274 12.332 3.82209 12.332 5C12.332 6.17791 11.6532 7.19726 10.6654 7.68816M11.9987 11.1776C13.0063 11.6336 13.9137 12.3767 14.6654 13.3333M1.33203 13.3333C2.62969 11.6817 4.39148 10.6667 6.33203 10.6667C8.27258 10.6667 10.0344 11.6817 11.332 13.3333M9.33203 5C9.33203 6.65685 7.98889 8 6.33203 8C4.67518 8 3.33203 6.65685 3.33203 5C3.33203 3.34315 4.67518 2 6.33203 2C7.98889 2 9.33203 3.34315 9.33203 5Z" stroke="#101828" stroke-width="1.4" stroke-linecap="round" stroke-linejoin="round"/>
</g>
</svg>
